<?xml version="1.0" encoding="iso-8859-1"?>
<!-- Generator: Adobe Illustrator 19.0.0, SVG Export Plug-In . SVG Version: 6.00 Build 0)  -->
<svg xmlns="http://www.w3.org/2000/svg" xmlns:xlink="http://www.w3.org/1999/xlink" version="1.1" id="Layer_1" x="0px" y="0px" viewBox="0 0 512 512" style="enable-background:new 0 0 512 512;" xml:space="preserve">
<g>
	<rect x="19.064" y="370.089" style="fill:#1F1A78;" width="85.962" height="89.6"/>
	<rect x="406.975" y="370.089" style="fill:#1F1A78;" width="85.962" height="89.6"/>
</g>
<path style="fill:#DB412C;" d="M503.83,273.631c0-5.991-2.625-15.142-5.839-20.197l-21.831-34.38L442.542,84.028  c-4.347-17.441-22.604-31.711-40.579-31.711H110.036c-17.974,0-36.232,14.271-40.579,31.711L35.84,219.054l-21.831,34.38  c-3.214,5.055-5.839,14.205-5.839,20.197l55.852,30.502L8.17,334.636v57.235h135.419L256,359.135l112.411,32.735H503.83v-57.235  l-55.852-30.502L503.83,273.631z"/>
<path style="fill:#FFFFFF;" d="M430.944,219.054c14.082,0,24.42-13.227,21.018-26.893L426.13,88.407  c-2.512-10.08-14.258-19.26-24.642-19.26H110.512c-10.385,0-22.13,9.18-24.641,19.257L60.038,192.162  c-3.402,13.665,6.936,26.892,21.018,26.892L430.944,219.054L430.944,219.054z"/>
<g>
	<path style="fill:#FF7945;" d="M77.094,262.327c16.842,0,30.502,16.179,30.502,36.154c0,19.963-13.661,36.154-30.502,36.154H8.17   v-72.309h68.924V262.327z"/>
	<path style="fill:#FF7945;" d="M503.83,262.327v72.309h-68.924c-16.842,0-30.502-16.192-30.502-36.154   c0-19.976,13.661-36.154,30.502-36.154h68.924V262.327z"/>
</g>
<polygon style="fill:#BA250F;" points="346.624,337.348 368.411,391.871 143.589,391.871 165.376,337.348 "/>
<path d="M69.522,227.227h372.956c4.512,0,8.17-3.658,8.17-8.17s-3.658-8.17-8.17-8.17H69.522c-4.512,0-8.17,3.658-8.17,8.17  S65.01,227.227,69.522,227.227z"/>
<path d="M504.888,249.055C504.888,249.055,504.886,249.055,504.888,249.055l-21.123-33.259l-7.912-31.781h17.083  c4.512,0,8.17-3.658,8.17-8.17s-3.658-8.17-8.17-8.17h-21.152L450.47,82.056c-5.292-21.258-26.597-37.91-48.504-37.91H110.034  c-21.906,0-43.212,16.652-48.504,37.91l-21.314,85.618H19.064c-4.512,0-8.17,3.658-8.17,8.17s3.658,8.17,8.17,8.17h17.083  l-7.912,31.781L7.112,249.055C3.058,255.441,0,265.961,0,273.525v118.346c0,4.512,3.658,8.17,8.17,8.17h2.723v59.643  c0,4.512,3.658,8.17,8.17,8.17h85.963c4.512,0,8.17-3.658,8.17-8.17v-35.132c0-4.512-3.658-8.17-8.17-8.17s-8.17,3.658-8.17,8.17  v26.962H27.234v-51.472h116.504c0.008,0,0.015,0,0.023,0h224.62c0.01,0,0.019,0.002,0.028,0.002c0.015,0,0.031-0.002,0.046-0.002  h116.311v51.472h-69.622v-26.962c0-4.512-3.658-8.17-8.17-8.17c-4.512,0-8.17,3.658-8.17,8.17v35.132c0,4.512,3.658,8.17,8.17,8.17  h85.963c4.512,0,8.17-3.658,8.17-8.17v-59.643h2.723c4.512,0,8.17-3.658,8.17-8.17V273.525  C512,265.961,508.942,255.441,504.888,249.055z M16.34,273.525c0-4.458,2.177-11.946,4.567-15.709l21.834-34.378  c0.471-0.742,0.819-1.555,1.032-2.406L77.387,86.003c3.443-13.832,18.394-25.516,32.647-25.516h291.932  c14.253,0,29.205,11.686,32.647,25.517l33.614,135.026c0.212,0.852,0.561,1.665,1.032,2.406l21.833,34.378  c2.39,3.764,4.567,11.252,4.567,15.71V383.7H373.94l-19.734-49.379c-1.24-3.104-4.245-5.139-7.586-5.139H165.38  c-3.342,0-6.347,2.035-7.586,5.139L138.06,383.7H16.34V273.525z M356.343,383.7H155.657l15.258-38.177h170.171L356.343,383.7z"/>
<path d="M40.851,342.801h30.742c24.355,0,44.17-19.814,44.17-44.17c0-24.355-19.814-44.17-44.17-44.17H46.885  c-4.512,0-8.17,3.658-8.17,8.17c0,4.512,3.658,8.17,8.17,8.17h24.708c15.345,0,27.83,12.484,27.83,27.83s-12.484,27.83-27.83,27.83  H40.851c-4.512,0-8.17,3.658-8.17,8.17C32.681,339.143,36.339,342.801,40.851,342.801z"/>
<path d="M396.237,298.631c0,24.356,19.814,44.17,44.17,44.17h30.742c4.512,0,8.17-3.658,8.17-8.17c0-4.512-3.658-8.17-8.17-8.17  h-30.742c-15.345,0-27.83-12.484-27.83-27.83c0-15.345,12.484-27.83,27.83-27.83h24.709c4.512,0,8.17-3.658,8.17-8.17  c0-4.512-3.658-8.17-8.17-8.17h-24.709C416.051,254.461,396.237,274.275,396.237,298.631z"/>
<g>
</g>
<g>
</g>
<g>
</g>
<g>
</g>
<g>
</g>
<g>
</g>
<g>
</g>
<g>
</g>
<g>
</g>
<g>
</g>
<g>
</g>
<g>
</g>
<g>
</g>
<g>
</g>
<g>
</g>
</svg>
